<?xml version="1.0" encoding="UTF-8"?>
<svg width="20px" height="20px" viewBox="0 0 20 20" version="1.1" xmlns="http://www.w3.org/2000/svg" xmlns:xlink="http://www.w3.org/1999/xlink">
    <title>noun_Arrow_2268731</title>
    <g id="Page-1" stroke="none" stroke-width="1" fill="none" fill-rule="evenodd">
        <g id="gallery" transform="translate(-140.000000, -1398.000000)" fill="#000000" fill-rule="nonzero">
            <g id="noun_Arrow_2268731" transform="translate(150.000000, 1408.000000) rotate(-90.000000) translate(-150.000000, -1408.000000) translate(140.000000, 1398.000000)">
                <path d="M19.3670817,12.8063235 C19.2287961,12.8063235 19.0559391,12.738827 18.9522249,12.6038339 L10.1365175,1.90563138 L1.28623877,12.6038339 C1.11338176,12.8063235 0.767667743,12.8400718 0.560239335,12.6713304 C0.352810926,12.5025891 0.318239525,12.1651063 0.491096532,11.9626167 L10.1365175,0.285714286 L19.7819385,11.9626167 C19.9547955,12.1651063 19.9202241,12.5025891 19.7127957,12.6713304 C19.6090815,12.7725752 19.5053673,12.8063235 19.3670817,12.8063235 Z" id="Path"></path>
                <path d="M19.3670817,19.8678133 C19.2287961,19.8678133 19.0559391,19.8003168 18.9522249,19.6653237 L10.1365175,8.9671212 L1.28623877,19.6653237 C1.11338176,19.8678133 0.767667743,19.9015616 0.560239335,19.7328202 C0.352810926,19.5640789 0.318239525,19.2265961 0.491096532,19.0241065 L10.1365175,7.38095238 L19.7819385,19.0578548 C19.9547955,19.2603444 19.9202241,19.5978272 19.7127957,19.7665685 C19.6090815,19.8340651 19.5053673,19.8678133 19.3670817,19.8678133 Z" id="Path"></path>
            </g>
        </g>
    </g>
</svg>
