<svg xmlns="http://www.w3.org/2000/svg" xmlns:xlink="http://www.w3.org/1999/xlink" version="1.1" x="0px" y="0px" viewBox="0 0 90 112.5" enable-background="new 0 0 90 90" xml:space="preserve"><path d="M71.7,55.7c-0.4,0-0.9-0.2-1.2-0.6L45,23.4L19.4,55.1c-0.5,0.6-1.5,0.7-2.1,0.2c-0.6-0.5-0.7-1.5-0.2-2.1L45,18.6l27.9,34.6  c0.5,0.6,0.4,1.6-0.2,2.1C72.4,55.6,72.1,55.7,71.7,55.7z"/><path d="M71.7,70.5c-0.4,0-0.9-0.2-1.2-0.6L45,38.2L19.4,69.9c-0.5,0.6-1.5,0.7-2.1,0.2c-0.6-0.5-0.7-1.5-0.2-2.1L45,33.5l27.9,34.6  c0.5,0.6,0.4,1.6-0.2,2.1C72.4,70.4,72.1,70.5,71.7,70.5z"/><text x="0" y="105" fill="#000000" font-size="5px" font-weight="bold" font-family="'Helvetica Neue', Helvetica, Arial-Unicode, Arial, Sans-serif">Created by Putra Theoo</text><text x="0" y="110" fill="#000000" font-size="5px" font-weight="bold" font-family="'Helvetica Neue', Helvetica, Arial-Unicode, Arial, Sans-serif">from the Noun Project</text></svg>